<svg xmlns="http://www.w3.org/2000/svg" width="900" height="420" viewBox="0 0 900 420" role="img">
<style>
  .mono{font-family:ui-monospace,SFMono-Regular,Menlo,Consolas,monospace}
  .label{font-size:11px;letter-spacing:2px;fill:#a76b80}
  .muted{fill:#8d6a77}.white{fill:#fce7f3}.pink{fill:#ff4d8d}.red{fill:#c72c61}
  @keyframes blink{0%,48%{opacity:1}49%,100%{opacity:0}}
  @keyframes pulse{0%,100%{opacity:.35}50%{opacity:1}}
  @keyframes scan{0%{transform:translateY(-30px)}100%{transform:translateY(370px)}}
  @keyframes boot1{0%,8%{opacity:0}10%,100%{opacity:1}}
  @keyframes boot2{0%,22%{opacity:0}24%,100%{opacity:1}}
  @keyframes boot3{0%,36%{opacity:0}38%,100%{opacity:1}}
  @keyframes boot4{0%,50%{opacity:0}52%,100%{opacity:1}}
  @keyframes boot5{0%,64%{opacity:0}66%,100%{opacity:1}}
  @keyframes glow{0%,100%{filter:drop-shadow(0 0 2px #902040)}50%{filter:drop-shadow(0 0 10px #ff4d8d)}}
</style>
<rect width="100%" height="100%" rx="14" fill="#09090b"/><rect x="1" y="1" width="898" height="418" rx="13" fill="none" stroke="#41111f"/>
<defs><linearGradient id="g" x1="0" x2="1"><stop stop-color="#ff4d8d"/><stop offset="1" stop-color="#902040"/></linearGradient></defs>
<circle cx="28" cy="25" r="5" fill="#ff4d8d"/><circle cx="47" cy="25" r="5" fill="#902040"/><circle cx="66" cy="25" r="5" fill="#41111f"/>
<text x="450" y="30" text-anchor="middle" class="mono label">IYEN://AGENT-OS/BOOT</text>
<line x1="0" y1="48" x2="900" y2="48" stroke="#271018"/>
<g class="mono" font-size="15">
 <text x="42" y="88" class="muted" style="animation:boot1 8s infinite">[00:00:01] mounting emotion layer<tspan x="820" class="pink">OK</tspan></text>
 <text x="42" y="121" class="muted" style="animation:boot2 8s infinite">[00:00:02] spawning tmux workers<tspan x="795" class="pink">04 ONLINE</tspan></text>
 <text x="42" y="154" class="muted" style="animation:boot3 8s infinite">[00:00:03] connecting event router<tspan x="820" class="pink">OK</tspan></text>
 <text x="42" y="187" class="muted" style="animation:boot4 8s infinite">[00:00:04] arming verification loop<tspan x="820" class="pink">OK</tspan></text>
 <text x="42" y="220" class="muted" style="animation:boot5 8s infinite">[00:00:05] containing personality<tspan x="788" fill="#ff315f">FAILED</tspan></text>
</g>
<g style="animation:glow 3s ease-in-out infinite">
 <path d="M450 265l20 21 31-4-10 29 17 26-30 6-14 28-24-20-31 3 10-29-17-26 30-6z" fill="none" stroke="url(#g)" stroke-width="2"/>
 <circle cx="450" cy="319" r="12" fill="#ff4d8d"><animate attributeName="r" values="8;14;8" dur="1.8s" repeatCount="indefinite"/></circle>
</g>
<text x="450" y="390" text-anchor="middle" class="mono white" font-size="17" letter-spacing="5">WELCOME, HUMAN<tspan style="animation:blink 1s infinite">_</tspan></text>
<rect x="0" y="48" width="900" height="2" fill="#ff4d8d" opacity=".18" style="animation:scan 5s linear infinite"/>
</svg>